<?xml version="1.0" encoding="utf-8"?>
<svg width="1728px" height="229px" viewBox="0 0 1728 229" version="1.1" xmlns:xlink="http://www.w3.org/1999/xlink" xmlns="http://www.w3.org/2000/svg">
  <desc>Created with Lunacy</desc>
  <defs>
    <radialGradient gradientUnits="objectBoundingBox" cx="50%" cy="0%" fx="50%" fy="0%" r="311.9581%" gradientTransform="translate(0.5,0),scale(0.99757254,1),rotate(99.809235),scale(1,0),translate(-0.5,-0)" id="gradient_1">
      <stop offset="0%" stop-color="#7EDF09" stop-opacity="0.5019608" />
      <stop offset="100%" stop-color="#D2FF00" />
    </radialGradient>
    <radialGradient gradientUnits="objectBoundingBox" cx="50%" cy="0%" fx="50%" fy="0%" r="530.45184%" gradientTransform="translate(0.5,0),scale(1,0.5824176),rotate(95.73631),scale(1,0),translate(-0.5,-0)" id="gradient_2">
      <stop offset="0%" stop-color="#7EDF09" stop-opacity="0.5019608" />
      <stop offset="100%" stop-color="#D2FF00" />
    </radialGradient>
    <path d="M58.1946 4.88761L58.4851 4.85849Q59.5822 4.74854 60.6837 4.69943Q61.7852 4.65031 62.8877 4.66219Q63.9902 4.67407 65.0903 4.7469Q66.1905 4.81972 67.2849 4.95328Q68.3794 5.08684 69.4648 5.28072Q70.5502 5.4746 71.6232 5.72821Q72.6962 5.98182 73.7535 6.29438Q74.8108 6.60693 75.8493 6.97749Q76.8877 7.34804 77.9041 7.77546Q78.9204 8.20287 79.9116 8.68584Q80.9027 9.1688 81.8657 9.70584Q82.8286 10.2429 83.7604 10.8324Q84.6921 11.4218 85.5899 12.0619Q86.4876 12.702 87.3485 13.3908Q88.2095 14.0796 89.0311 14.8149Q89.8526 15.5502 90.6322 16.3298Q91.4119 17.1095 92.1472 17.931Q92.8825 18.7526 93.5713 19.6135Q94.2601 20.4745 94.9002 21.3722Q95.5403 22.27 96.1297 23.2017Q96.7192 24.1335 97.2562 25.0964Q97.7933 26.0594 98.2762 27.0505Q98.7592 28.0417 99.1866 29.058Q99.6141 30.0744 99.9846 31.1128Q100.355 32.1512 100.668 33.2086Q100.98 34.2659 101.234 35.3389Q101.487 36.4119 101.681 37.4973Q101.875 38.5827 102.009 39.6771Q102.142 40.7716 102.215 41.8718Q102.288 42.9719 102.3 44.0744Q102.312 45.1769 102.263 46.2784Q102.214 47.3799 102.104 48.4769L102.103 48.479Q101.976 49.749 101.795 51.0124Q101.613 52.2758 101.377 53.5303Q101.142 54.7848 100.853 56.028Q100.564 57.2712 100.222 58.501Q99.8799 59.7307 99.4855 60.9446Q99.0911 62.1586 98.6451 63.3545Q98.1991 64.5504 97.7023 65.7262Q97.2055 66.9019 96.6588 68.0553Q96.1121 69.2087 95.5164 70.3376Q94.9208 71.4665 94.2774 72.5688Q93.634 73.6712 92.9439 74.7449Q92.2539 75.8187 91.5185 76.862Q90.7831 77.9052 90.0037 78.916Q89.2243 79.9268 88.4023 80.9033Q87.5803 81.8798 86.7172 82.8201Q85.8542 83.7605 84.9516 84.663Q84.0491 85.5656 83.1087 86.4286Q82.1683 87.2917 81.1918 88.1137Q80.2154 88.9357 79.2046 89.7151Q78.1938 90.4945 77.1506 91.2299Q76.1073 91.9653 75.0335 92.6554Q73.9597 93.3454 72.8574 93.9888Q71.755 94.6323 70.6261 95.2279Q69.4972 95.8235 68.3438 96.3702Q67.1905 96.9169 66.0147 97.4137Q64.839 97.9106 63.6431 98.3566Q62.4471 98.8026 61.2332 99.1969Q60.0193 99.5913 58.7895 99.9333Q57.5598 100.275 56.3166 100.564Q55.0733 100.853 53.8189 101.089Q52.5644 101.324 51.301 101.506Q50.0376 101.688 48.7675 101.815L48.4769 101.844Q47.3799 101.954 46.2784 102.003Q45.1769 102.052 44.0744 102.04Q42.9719 102.028 41.8717 101.956Q40.7716 101.883 39.6771 101.749Q38.5827 101.616 37.4973 101.422Q36.4119 101.228 35.3389 100.974Q34.2659 100.721 33.2086 100.408Q32.1512 100.095 31.1128 99.7249Q30.0744 99.3544 29.058 98.927Q28.0417 98.4996 27.0505 98.0166Q26.0594 97.5336 25.0964 96.9966Q24.1335 96.4596 23.2017 95.8701Q22.27 95.2806 21.3722 94.6405Q20.4745 94.0004 19.6135 93.3116Q18.7526 92.6229 17.931 91.8876Q17.1095 91.1522 16.3298 90.3726Q15.5502 89.593 14.8149 88.7714Q14.0796 87.9499 13.3908 87.0889Q12.702 86.2279 12.0619 85.3302Q11.4218 84.4325 10.8324 83.5007Q10.2429 82.569 9.70584 81.606Q9.1688 80.6431 8.68584 79.6519Q8.20287 78.6608 7.77546 77.6444Q7.34804 76.6281 6.97749 75.5896Q6.60693 74.5512 6.29438 73.4939Q5.98182 72.4365 5.72821 71.3635Q5.4746 70.2905 5.28072 69.2051Q5.08684 68.1197 4.95328 67.0253Q4.81972 65.9309 4.7469 64.8307Q4.67407 63.7305 4.66219 62.628Q4.65031 61.5255 4.69943 60.4241Q4.74854 59.3226 4.85849 58.2255L4.85869 58.2235Q4.98598 56.9535 5.16754 55.69Q5.34911 54.4266 5.58462 53.1721Q5.82014 51.9177 6.10916 50.6744Q6.39819 49.4312 6.7402 48.2015Q7.08221 46.9718 7.47658 45.7578Q7.87095 44.5439 8.31695 43.3479Q8.76295 42.152 9.25977 40.9763Q9.75658 39.8005 10.3033 38.6472Q10.85 37.4938 11.4456 36.3649Q12.0412 35.236 12.6847 34.1336Q13.3281 33.0313 14.0181 31.9575Q14.7082 30.8837 15.4436 29.8405Q16.179 28.7972 16.9584 27.7864Q17.7378 26.7756 18.5598 25.7992Q19.3818 24.8227 20.2449 23.8823Q21.1079 22.9419 22.0105 22.0394Q22.913 21.1368 23.8534 20.2738Q24.7938 19.4107 25.7702 18.5887Q26.7467 17.7667 27.7575 16.9873Q28.7683 16.2079 29.8115 15.4725Q30.8548 14.7371 31.9286 14.0471Q33.0024 13.357 34.1047 12.7136Q35.2071 12.0702 36.336 11.4746Q37.4649 10.8789 38.6182 10.3322Q39.7716 9.7855 40.9474 9.28868Q42.1231 8.79187 43.319 8.34587Q44.515 7.89987 45.7289 7.5055Q46.9428 7.11113 48.1726 6.76912Q49.4023 6.42711 50.6455 6.13808Q51.8888 5.84906 53.1432 5.61354Q54.3977 5.37803 55.6611 5.19647Q56.9245 5.0149 58.1946 4.88761Z" transform="matrix(0.70710677 0.70710677 -0.70710677 0.70710677 1318.1128 0)" id="path_1" />
    <path d="M58.1946 4.88761L58.4851 4.85849Q59.5822 4.74854 60.6837 4.69943Q61.7852 4.65031 62.8877 4.66219Q63.9902 4.67407 65.0903 4.7469Q66.1905 4.81972 67.2849 4.95328Q68.3794 5.08684 69.4648 5.28072Q70.5502 5.4746 71.6232 5.72821Q72.6962 5.98182 73.7535 6.29438Q74.8108 6.60693 75.8493 6.97749Q76.8877 7.34804 77.9041 7.77546Q78.9204 8.20287 79.9116 8.68584Q80.9027 9.1688 81.8657 9.70584Q82.8286 10.2429 83.7604 10.8324Q84.6921 11.4218 85.5899 12.0619Q86.4876 12.702 87.3485 13.3908Q88.2095 14.0796 89.0311 14.8149Q89.8526 15.5502 90.6322 16.3298Q91.4119 17.1095 92.1472 17.931Q92.8825 18.7526 93.5713 19.6135Q94.2601 20.4745 94.9002 21.3722Q95.5403 22.27 96.1297 23.2017Q96.7192 24.1335 97.2562 25.0964Q97.7933 26.0594 98.2762 27.0505Q98.7592 28.0417 99.1866 29.058Q99.6141 30.0744 99.9846 31.1128Q100.355 32.1512 100.668 33.2086Q100.98 34.2659 101.234 35.3389Q101.487 36.4119 101.681 37.4973Q101.875 38.5827 102.009 39.6771Q102.142 40.7716 102.215 41.8718Q102.288 42.9719 102.3 44.0744Q102.312 45.1769 102.263 46.2784Q102.214 47.3799 102.104 48.4769L102.103 48.479Q101.976 49.749 101.795 51.0124Q101.613 52.2758 101.377 53.5303Q101.142 54.7848 100.853 56.028Q100.564 57.2712 100.222 58.501Q99.8799 59.7307 99.4855 60.9446Q99.0911 62.1586 98.6451 63.3545Q98.1991 64.5504 97.7023 65.7262Q97.2055 66.9019 96.6588 68.0553Q96.1121 69.2087 95.5164 70.3376Q94.9208 71.4665 94.2774 72.5688Q93.634 73.6712 92.9439 74.7449Q92.2539 75.8187 91.5185 76.862Q90.7831 77.9052 90.0037 78.916Q89.2243 79.9268 88.4023 80.9033Q87.5803 81.8798 86.7172 82.8201Q85.8542 83.7605 84.9516 84.663Q84.0491 85.5656 83.1087 86.4286Q82.1683 87.2917 81.1918 88.1137Q80.2154 88.9357 79.2046 89.7151Q78.1938 90.4945 77.1506 91.2299Q76.1073 91.9653 75.0335 92.6554Q73.9597 93.3454 72.8574 93.9888Q71.755 94.6323 70.6261 95.2279Q69.4972 95.8235 68.3438 96.3702Q67.1905 96.9169 66.0147 97.4137Q64.839 97.9106 63.6431 98.3566Q62.4471 98.8026 61.2332 99.1969Q60.0193 99.5913 58.7895 99.9333Q57.5598 100.275 56.3166 100.564Q55.0733 100.853 53.8189 101.089Q52.5644 101.324 51.301 101.506Q50.0376 101.688 48.7675 101.815L48.4769 101.844Q47.3799 101.954 46.2784 102.003Q45.1769 102.052 44.0744 102.04Q42.9719 102.028 41.8717 101.956Q40.7716 101.883 39.6771 101.749Q38.5827 101.616 37.4973 101.422Q36.4119 101.228 35.3389 100.974Q34.2659 100.721 33.2086 100.408Q32.1512 100.095 31.1128 99.7249Q30.0744 99.3544 29.058 98.927Q28.0417 98.4996 27.0505 98.0166Q26.0594 97.5336 25.0964 96.9966Q24.1335 96.4596 23.2017 95.8701Q22.27 95.2806 21.3722 94.6405Q20.4745 94.0004 19.6135 93.3116Q18.7526 92.6229 17.931 91.8876Q17.1095 91.1522 16.3298 90.3726Q15.5502 89.593 14.8149 88.7714Q14.0796 87.9499 13.3908 87.0889Q12.702 86.2279 12.0619 85.3302Q11.4218 84.4325 10.8324 83.5007Q10.2429 82.569 9.70584 81.606Q9.1688 80.6431 8.68584 79.6519Q8.20287 78.6608 7.77546 77.6444Q7.34804 76.6281 6.97749 75.5896Q6.60693 74.5512 6.29438 73.4939Q5.98182 72.4365 5.72821 71.3635Q5.4746 70.2905 5.28072 69.2051Q5.08684 68.1197 4.95328 67.0253Q4.81972 65.9309 4.7469 64.8307Q4.67407 63.7305 4.66219 62.628Q4.65031 61.5255 4.69943 60.4241Q4.74854 59.3226 4.85849 58.2255L4.85869 58.2235Q4.98598 56.9535 5.16754 55.69Q5.34911 54.4266 5.58462 53.1721Q5.82014 51.9177 6.10916 50.6744Q6.39819 49.4312 6.7402 48.2015Q7.08221 46.9718 7.47658 45.7578Q7.87095 44.5439 8.31695 43.3479Q8.76295 42.152 9.25977 40.9763Q9.75658 39.8005 10.3033 38.6472Q10.85 37.4938 11.4456 36.3649Q12.0412 35.236 12.6847 34.1336Q13.3281 33.0313 14.0181 31.9575Q14.7082 30.8837 15.4436 29.8405Q16.179 28.7972 16.9584 27.7864Q17.7378 26.7756 18.5598 25.7992Q19.3818 24.8227 20.2449 23.8823Q21.1079 22.9419 22.0105 22.0394Q22.913 21.1368 23.8534 20.2738Q24.7938 19.4107 25.7702 18.5887Q26.7467 17.7667 27.7575 16.9873Q28.7683 16.2079 29.8115 15.4725Q30.8548 14.7371 31.9286 14.0471Q33.0024 13.357 34.1047 12.7136Q35.2071 12.0702 36.336 11.4746Q37.4649 10.8789 38.6182 10.3322Q39.7716 9.7855 40.9474 9.28868Q42.1231 8.79187 43.319 8.34587Q44.515 7.89987 45.7289 7.5055Q46.9428 7.11113 48.1726 6.76912Q49.4023 6.42711 50.6455 6.13808Q51.8888 5.84906 53.1432 5.61354Q54.3977 5.37803 55.6611 5.19647Q56.9245 5.0149 58.1946 4.88761Z" transform="matrix(0.70710677 0.70710677 -0.70710677 0.70710677 1270.7449 38.738182)" id="path_2" />
    <path d="M0 0L106 60.6667L106 182L0 121.333L0 0Z" transform="matrix(1 0 0 -1 1622 205.63144)" id="path_3" />
  </defs>
  <g id="Rectangle-Copy-7">
    <use stroke="none" fill="#C8D544" fill-opacity="0.3648391" xlink:href="#path_1" fill-rule="evenodd" />
    <use stroke="none" fill="url(#gradient_1)" fill-opacity="0.3648391" xlink:href="#path_1" fill-rule="evenodd" />
  </g>
  <path d="M58.1946 4.88761L58.4851 4.85849Q59.5822 4.74854 60.6837 4.69943Q61.7852 4.65031 62.8877 4.66219Q63.9902 4.67407 65.0903 4.7469Q66.1905 4.81972 67.2849 4.95328Q68.3794 5.08684 69.4648 5.28072Q70.5502 5.4746 71.6232 5.72821Q72.6962 5.98182 73.7535 6.29438Q74.8108 6.60693 75.8493 6.97749Q76.8877 7.34804 77.9041 7.77546Q78.9204 8.20287 79.9116 8.68584Q80.9027 9.1688 81.8657 9.70584Q82.8286 10.2429 83.7604 10.8324Q84.6921 11.4218 85.5899 12.0619Q86.4876 12.702 87.3485 13.3908Q88.2095 14.0796 89.0311 14.8149Q89.8526 15.5502 90.6322 16.3298Q91.4119 17.1095 92.1472 17.931Q92.8825 18.7526 93.5713 19.6135Q94.2601 20.4745 94.9002 21.3722Q95.5403 22.27 96.1297 23.2017Q96.7192 24.1335 97.2562 25.0964Q97.7933 26.0594 98.2762 27.0505Q98.7592 28.0417 99.1866 29.058Q99.6141 30.0744 99.9846 31.1128Q100.355 32.1512 100.668 33.2086Q100.98 34.2659 101.234 35.3389Q101.487 36.4119 101.681 37.4973Q101.875 38.5827 102.009 39.6771Q102.142 40.7716 102.215 41.8718Q102.288 42.9719 102.3 44.0744Q102.312 45.1769 102.263 46.2784Q102.214 47.3799 102.104 48.4769L102.103 48.479Q101.976 49.749 101.795 51.0124Q101.613 52.2758 101.377 53.5303Q101.142 54.7848 100.853 56.028Q100.564 57.2712 100.222 58.501Q99.8799 59.7307 99.4855 60.9446Q99.0911 62.1586 98.6451 63.3545Q98.1991 64.5504 97.7023 65.7262Q97.2055 66.9019 96.6588 68.0553Q96.1121 69.2087 95.5164 70.3376Q94.9208 71.4665 94.2774 72.5688Q93.634 73.6712 92.9439 74.7449Q92.2539 75.8187 91.5185 76.862Q90.7831 77.9052 90.0037 78.916Q89.2243 79.9268 88.4023 80.9033Q87.5803 81.8798 86.7172 82.8201Q85.8542 83.7605 84.9516 84.663Q84.0491 85.5656 83.1087 86.4286Q82.1683 87.2917 81.1918 88.1137Q80.2154 88.9357 79.2046 89.7151Q78.1938 90.4945 77.1506 91.2299Q76.1073 91.9653 75.0335 92.6554Q73.9597 93.3454 72.8574 93.9888Q71.755 94.6323 70.6261 95.2279Q69.4972 95.8235 68.3438 96.3702Q67.1905 96.9169 66.0147 97.4137Q64.839 97.9106 63.6431 98.3566Q62.4471 98.8026 61.2332 99.1969Q60.0193 99.5913 58.7895 99.9333Q57.5598 100.275 56.3166 100.564Q55.0733 100.853 53.8189 101.089Q52.5644 101.324 51.301 101.506Q50.0376 101.688 48.7675 101.815L48.4769 101.844Q47.3799 101.954 46.2784 102.003Q45.1769 102.052 44.0744 102.04Q42.9719 102.028 41.8717 101.956Q40.7716 101.883 39.6771 101.749Q38.5827 101.616 37.4973 101.422Q36.4119 101.228 35.3389 100.974Q34.2659 100.721 33.2086 100.408Q32.1512 100.095 31.1128 99.7249Q30.0744 99.3544 29.058 98.927Q28.0417 98.4996 27.0505 98.0166Q26.0594 97.5336 25.0964 96.9966Q24.1335 96.4596 23.2017 95.8701Q22.27 95.2806 21.3722 94.6405Q20.4745 94.0004 19.6135 93.3116Q18.7526 92.6229 17.931 91.8876Q17.1095 91.1522 16.3298 90.3726Q15.5502 89.593 14.8149 88.7714Q14.0796 87.9499 13.3908 87.0889Q12.702 86.2279 12.0619 85.3302Q11.4218 84.4325 10.8324 83.5007Q10.2429 82.569 9.70584 81.606Q9.1688 80.6431 8.68584 79.6519Q8.20287 78.6608 7.77546 77.6444Q7.34804 76.6281 6.97749 75.5896Q6.60693 74.5512 6.29438 73.4939Q5.98182 72.4365 5.72821 71.3635Q5.4746 70.2905 5.28072 69.2051Q5.08684 68.1197 4.95328 67.0253Q4.81972 65.9309 4.7469 64.8307Q4.67407 63.7305 4.66219 62.628Q4.65031 61.5255 4.69943 60.4241Q4.74854 59.3226 4.85849 58.2255L4.85869 58.2235Q4.98598 56.9535 5.16754 55.69Q5.34911 54.4266 5.58462 53.1721Q5.82014 51.9177 6.10916 50.6744Q6.39819 49.4312 6.7402 48.2015Q7.08221 46.9718 7.47658 45.7578Q7.87095 44.5439 8.31695 43.3479Q8.76295 42.152 9.25977 40.9763Q9.75658 39.8005 10.3033 38.6472Q10.85 37.4938 11.4456 36.3649Q12.0412 35.236 12.6847 34.1336Q13.3281 33.0313 14.0181 31.9575Q14.7082 30.8837 15.4436 29.8405Q16.179 28.7972 16.9584 27.7864Q17.7378 26.7756 18.5598 25.7992Q19.3818 24.8227 20.2449 23.8823Q21.1079 22.9419 22.0105 22.0394Q22.913 21.1368 23.8534 20.2738Q24.7938 19.4107 25.7702 18.5887Q26.7467 17.7667 27.7575 16.9873Q28.7683 16.2079 29.8115 15.4725Q30.8548 14.7371 31.9286 14.0471Q33.0024 13.357 34.1047 12.7136Q35.2071 12.0702 36.336 11.4746Q37.4649 10.8789 38.6182 10.3322Q39.7716 9.7855 40.9474 9.28868Q42.1231 8.79187 43.319 8.34587Q44.515 7.89987 45.7289 7.5055Q46.9428 7.11113 48.1726 6.76912Q49.4023 6.42711 50.6455 6.13808Q51.8888 5.84906 53.1432 5.61354Q54.3977 5.37803 55.6611 5.19647Q56.9245 5.0149 58.1946 4.88761Z" transform="matrix(0.70710677 0.70710677 -0.70710677 0.70710677 1222.928 77.84355)" id="Rectangle-Copy-6" fill="url(#gradient_1)" fill-rule="evenodd" stroke="none" />
  <g id="Rectangle">
    <use stroke="none" fill="#C8D544" xlink:href="#path_2" fill-rule="evenodd" />
    <use stroke="none" fill="url(#gradient_1)" xlink:href="#path_2" fill-rule="evenodd" />
  </g>
  <g id="Rectangle-Copy-11">
    <use stroke="none" fill="#71BA1D" xlink:href="#path_3" fill-rule="evenodd" />
    <use stroke="none" fill="url(#gradient_2)" xlink:href="#path_3" fill-rule="evenodd" />
  </g>
  <path d="M0 0L1622 0L1622 92L0 92L0 0Z" transform="matrix(1 0 0 -1 0 205.63144)" id="Rectangle-Copy-10" fill="#71BA1D" fill-rule="evenodd" stroke="none" />
</svg>